<svg xmlns="http://www.w3.org/2000/svg" viewBox="0 0 29.44 36.94"><defs><style>.cls-1{fill:#231f20;}</style></defs><title>icon_directory</title><g id="Layer_2" data-name="Layer 2"><g id="Layer_1-2" data-name="Layer 1"><rect class="cls-1" width="11.65" height="11.65" rx="4.18"/><rect class="cls-1" x="17.79" y="12.65" width="11.65" height="11.65" rx="4.18"/><path class="cls-1" d="M15.78,20H7.62a3.3,3.3,0,0,1-3.3-3.3V13.62a.69.69,0,0,1,.7-.69H6.63a.69.69,0,0,1,.69.69v2.46a.9.9,0,0,0,.9.89h7.56a.69.69,0,0,1,.69.7v1.61A.69.69,0,0,1,15.78,20Z"/><rect class="cls-1" x="17.79" y="25.29" width="11.65" height="11.65" rx="4.18"/><path class="cls-1" d="M15.78,32.62H7.62a3.3,3.3,0,0,1-3.3-3.3V21.94a.69.69,0,0,1,.7-.69H6.63a.69.69,0,0,1,.69.69v6.78a.9.9,0,0,0,.9.9h7.56a.69.69,0,0,1,.69.69v1.61A.69.69,0,0,1,15.78,32.62Z"/></g></g></svg>