<svg xmlns="http://www.w3.org/2000/svg" viewBox="0 0 44.93 44.93"><defs><style>.cls-1{fill:#231f20;}</style></defs><title>icon_add</title><g id="Layer_2" data-name="Layer 2"><g id="Layer_1-2" data-name="Layer 1"><path class="cls-1" d="M41.37,18.9H29.58A3.56,3.56,0,0,1,26,15.35V3.56A3.56,3.56,0,0,0,22.46,0h0A3.56,3.56,0,0,0,18.9,3.56V15.35a3.55,3.55,0,0,1-3.55,3.55H3.56A3.56,3.56,0,0,0,0,22.46H0A3.56,3.56,0,0,0,3.56,26H15.35a3.56,3.56,0,0,1,3.55,3.56V41.37a3.57,3.57,0,0,0,3.56,3.56h0A3.56,3.56,0,0,0,26,41.37V29.58A3.57,3.57,0,0,1,29.58,26H41.37a3.56,3.56,0,0,0,3.56-3.56h0A3.57,3.57,0,0,0,41.37,18.9Z"/></g></g></svg>