<svg xmlns="http://www.w3.org/2000/svg" viewBox="0 0 19.01 33.45"><defs><style>.cls-1{fill:#231f20;}</style></defs><title>icon_question</title><g id="Layer_2" data-name="Layer 2"><g id="Layer_1-2" data-name="Layer 1"><circle class="cls-1" cx="9.51" cy="29.48" r="3.97"/><path class="cls-1" d="M9.85,0A9.55,9.55,0,0,0,0,8.23,1.18,1.18,0,0,0,1.19,9.55H4.1a1.17,1.17,0,0,0,1.15-.91,4.31,4.31,0,1,1,4.22,5.22h0a2.57,2.57,0,0,0-2.59,2.57v5.39h0A1.19,1.19,0,0,0,8,23h2.85a1.19,1.19,0,0,0,1.19-1.19v-1.7a2,2,0,0,1,1.26-1.86A9.54,9.54,0,0,0,9.85,0Z"/></g></g></svg>