<svg xmlns="http://www.w3.org/2000/svg" viewBox="0 0 35.26 32.62"><defs><style>.cls-1{fill:#231f20;}</style></defs><title>icon_timeline</title><g id="Layer_2" data-name="Layer 2"><g id="Layer_1-2" data-name="Layer 1"><rect class="cls-1" y="10.49" width="11.65" height="11.65" rx="4.18"/><rect class="cls-1" x="23.62" width="11.65" height="11.65" rx="4.18"/><rect class="cls-1" x="23.62" y="20.97" width="11.65" height="11.65" rx="4.18"/><path class="cls-1" d="M19.38,16.31v-8a1,1,0,0,1,1-1h.81a1,1,0,0,0,1-1v-1a1,1,0,0,0-1-1H19.4a3,3,0,0,0-3,3V13.8a1,1,0,0,1-1,1H14a1,1,0,0,0-1,1v1a1,1,0,0,0,1,1h1.42a1,1,0,0,1,1,1v6.46a3,3,0,0,0,3,3h1.8a1,1,0,0,0,1-1v-1a1,1,0,0,0-1-1h-.81a1,1,0,0,1-1-1v-8Z"/></g></g></svg>